<mxfile host="app.diagrams.net" modified="2023-05-22T07:57:07.793Z" agent="Mozilla/5.0 (Windows NT 10.0; Win64; x64) AppleWebKit/537.36 (KHTML, like Gecko) Chrome/113.0.0.0 Safari/537.36" etag="9uCON-SOZ1xC6Sfl0fzb" version="21.3.2" type="device">
  <diagram name="Page-1" id="13e1069c-82ec-6db2-03f1-153e76fe0fe0">
    <mxGraphModel dx="1731" dy="912" grid="1" gridSize="10" guides="1" tooltips="1" connect="1" arrows="1" fold="1" page="1" pageScale="1" pageWidth="850" pageHeight="1400" background="none" math="0" shadow="0">
      <root>
        <mxCell id="0" />
        <mxCell id="1" parent="0" />
        <mxCell id="7baba1c4bc27f4b0-2" value="Agent" style="shape=umlLifeline;perimeter=lifelinePerimeter;whiteSpace=wrap;html=1;container=1;collapsible=0;recursiveResize=0;outlineConnect=0;rounded=1;shadow=0;comic=0;labelBackgroundColor=none;strokeWidth=1;fontFamily=Helvetica;fontSize=12;align=center;fillColor=#fff2cc;strokeColor=#d6b656;size=40;" parent="1" vertex="1">
          <mxGeometry x="250" y="79" width="110" height="1321" as="geometry" />
        </mxCell>
        <mxCell id="7baba1c4bc27f4b0-10" value="" style="html=1;points=[];perimeter=orthogonalPerimeter;rounded=0;shadow=0;comic=0;labelBackgroundColor=none;strokeWidth=1;fontFamily=Helvetica;fontSize=12;align=center;fillColor=#fff2cc;strokeColor=#d6b656;" parent="7baba1c4bc27f4b0-2" vertex="1">
          <mxGeometry x="50" y="70" width="10" height="420" as="geometry" />
        </mxCell>
        <mxCell id="7baba1c4bc27f4b0-11" value="&lt;font style=&quot;font-size: 11px&quot;&gt;Input OSM data&lt;/font&gt;" style="html=1;verticalAlign=bottom;endArrow=block;labelBackgroundColor=none;fontFamily=Helvetica;fontSize=12;edgeStyle=elbowEdgeStyle;elbow=vertical;" parent="7baba1c4bc27f4b0-2" edge="1">
          <mxGeometry relative="1" as="geometry">
            <mxPoint x="-50" y="142" as="sourcePoint" />
            <mxPoint as="offset" />
            <mxPoint x="50" y="142" as="targetPoint" />
          </mxGeometry>
        </mxCell>
        <mxCell id="jPtnPKBCRb5HNoMUkQSy-31" value="" style="html=1;verticalAlign=bottom;endArrow=block;rounded=0;endFill=1;endSize=6;fontFamily=Helvetica;exitX=1.143;exitY=0.544;exitDx=0;exitDy=0;exitPerimeter=0;" parent="7baba1c4bc27f4b0-2" target="t_Ti84ju1iwW1GZTYooi-32" edge="1">
          <mxGeometry x="0.0032" relative="1" as="geometry">
            <mxPoint x="60" y="361" as="sourcePoint" />
            <mxPoint as="offset" />
            <mxPoint x="200" y="361" as="targetPoint" />
          </mxGeometry>
        </mxCell>
        <mxCell id="jPtnPKBCRb5HNoMUkQSy-32" value="Create column of cost_flood" style="edgeLabel;html=1;align=center;verticalAlign=bottom;resizable=0;points=[];fontColor=#0000FF;" parent="jPtnPKBCRb5HNoMUkQSy-31" vertex="1" connectable="0">
          <mxGeometry relative="1" as="geometry">
            <mxPoint as="offset" />
          </mxGeometry>
        </mxCell>
        <mxCell id="jPtnPKBCRb5HNoMUkQSy-33" value="" style="html=1;verticalAlign=bottom;endArrow=block;rounded=0;endFill=1;endSize=6;fontFamily=Helvetica;" parent="7baba1c4bc27f4b0-2" target="t_Ti84ju1iwW1GZTYooi-32" edge="1">
          <mxGeometry x="0.0032" relative="1" as="geometry">
            <mxPoint x="60" y="301" as="sourcePoint" />
            <mxPoint as="offset" />
            <mxPoint x="220" y="301" as="targetPoint" />
          </mxGeometry>
        </mxCell>
        <mxCell id="jPtnPKBCRb5HNoMUkQSy-34" value="Add elevation to nodes" style="edgeLabel;html=1;align=center;verticalAlign=bottom;resizable=0;points=[];fontColor=#0000FF;" parent="jPtnPKBCRb5HNoMUkQSy-33" vertex="1" connectable="0">
          <mxGeometry relative="1" as="geometry">
            <mxPoint as="offset" />
          </mxGeometry>
        </mxCell>
        <mxCell id="yroGHbSk9mLoKnZrlHjl-5" value="&lt;font style=&quot;font-size: 11px&quot;&gt;return data&lt;/font&gt;" style="html=1;verticalAlign=bottom;endArrow=none;entryX=0;entryY=0;labelBackgroundColor=default;fontFamily=Helvetica;fontSize=11;edgeStyle=elbowEdgeStyle;elbow=vertical;dashed=1;startArrow=block;startFill=1;endFill=0;rounded=0;endSize=6;" parent="7baba1c4bc27f4b0-2" edge="1">
          <mxGeometry relative="1" as="geometry">
            <mxPoint x="-46" y="470.99999999999994" as="sourcePoint" />
            <mxPoint x="50" y="471.1700000000016" as="targetPoint" />
          </mxGeometry>
        </mxCell>
        <mxCell id="yroGHbSk9mLoKnZrlHjl-9" value="&lt;font style=&quot;font-size: 11px&quot;&gt;return data&lt;/font&gt;" style="html=1;verticalAlign=bottom;endArrow=none;entryX=0;entryY=0;labelBackgroundColor=default;fontFamily=Helvetica;fontSize=11;edgeStyle=elbowEdgeStyle;elbow=vertical;dashed=1;startArrow=block;startFill=1;endFill=0;rounded=0;endSize=6;" parent="7baba1c4bc27f4b0-2" edge="1">
          <mxGeometry relative="1" as="geometry">
            <mxPoint x="-50" y="721.1" as="sourcePoint" />
            <mxPoint x="46" y="721.2700000000017" as="targetPoint" />
          </mxGeometry>
        </mxCell>
        <mxCell id="yroGHbSk9mLoKnZrlHjl-36" value="&lt;font style=&quot;font-size: 11px&quot;&gt;return data&lt;/font&gt;" style="html=1;verticalAlign=bottom;endArrow=none;labelBackgroundColor=default;fontFamily=Helvetica;fontSize=11;edgeStyle=elbowEdgeStyle;elbow=vertical;dashed=1;startArrow=block;startFill=1;endFill=0;rounded=0;endSize=6;" parent="7baba1c4bc27f4b0-2" target="7baba1c4bc27f4b0-3" edge="1">
          <mxGeometry relative="1" as="geometry">
            <mxPoint x="60" y="831" as="sourcePoint" />
            <mxPoint x="200" y="831" as="targetPoint" />
            <Array as="points">
              <mxPoint x="60" y="831" />
            </Array>
          </mxGeometry>
        </mxCell>
        <mxCell id="yroGHbSk9mLoKnZrlHjl-47" value="&lt;font style=&quot;font-size: 11px&quot;&gt;return data&lt;/font&gt;" style="html=1;verticalAlign=bottom;endArrow=none;entryX=0;entryY=0;labelBackgroundColor=default;fontFamily=Helvetica;fontSize=11;edgeStyle=elbowEdgeStyle;elbow=vertical;dashed=1;startArrow=block;startFill=1;endFill=0;rounded=0;endSize=6;" parent="7baba1c4bc27f4b0-2" edge="1">
          <mxGeometry relative="1" as="geometry">
            <mxPoint x="-46" y="961" as="sourcePoint" />
            <mxPoint x="50" y="961.1700000000017" as="targetPoint" />
          </mxGeometry>
        </mxCell>
        <mxCell id="p0byIvA4VLlAtnDWS7G8-28" value="" style="html=1;verticalAlign=bottom;endArrow=block;rounded=0;endFill=1;endSize=6;fontFamily=Helvetica;exitX=1.143;exitY=0.544;exitDx=0;exitDy=0;exitPerimeter=0;" parent="7baba1c4bc27f4b0-2" edge="1">
          <mxGeometry x="0.0032" relative="1" as="geometry">
            <mxPoint x="60" y="1221" as="sourcePoint" />
            <mxPoint as="offset" />
            <mxPoint x="225" y="1221" as="targetPoint" />
          </mxGeometry>
        </mxCell>
        <mxCell id="p0byIvA4VLlAtnDWS7G8-29" value="pgr_TSP" style="edgeLabel;html=1;align=center;verticalAlign=bottom;resizable=0;points=[];fontColor=#0000FF;" parent="p0byIvA4VLlAtnDWS7G8-28" vertex="1" connectable="0">
          <mxGeometry relative="1" as="geometry">
            <mxPoint as="offset" />
          </mxGeometry>
        </mxCell>
        <mxCell id="p0byIvA4VLlAtnDWS7G8-7" value="&lt;font style=&quot;font-size: 11px&quot;&gt;return data&lt;/font&gt;" style="html=1;verticalAlign=bottom;endArrow=none;labelBackgroundColor=default;fontFamily=Helvetica;fontSize=11;edgeStyle=elbowEdgeStyle;elbow=vertical;dashed=1;startArrow=block;startFill=1;endFill=0;rounded=0;endSize=6;entryX=-0.237;entryY=0.891;entryDx=0;entryDy=0;entryPerimeter=0;" parent="7baba1c4bc27f4b0-2" target="p0byIvA4VLlAtnDWS7G8-9" edge="1">
          <mxGeometry x="0.0039" relative="1" as="geometry">
            <mxPoint x="60" y="1251" as="sourcePoint" />
            <mxPoint x="230" y="1251" as="targetPoint" />
            <Array as="points">
              <mxPoint x="60" y="1251" />
            </Array>
            <mxPoint as="offset" />
          </mxGeometry>
        </mxCell>
        <mxCell id="p0byIvA4VLlAtnDWS7G8-2" value="&lt;font style=&quot;font-size: 11px&quot;&gt;return data&lt;/font&gt;" style="html=1;verticalAlign=bottom;endArrow=none;entryX=0.159;entryY=0.961;labelBackgroundColor=default;fontFamily=Helvetica;fontSize=11;edgeStyle=elbowEdgeStyle;elbow=vertical;dashed=1;startArrow=block;startFill=1;endFill=0;rounded=0;endSize=6;entryDx=0;entryDy=0;entryPerimeter=0;" parent="7baba1c4bc27f4b0-2" edge="1">
          <mxGeometry relative="1" as="geometry">
            <mxPoint x="-51" y="1251" as="sourcePoint" />
            <mxPoint x="51.59000000000003" y="1251.64" as="targetPoint" />
          </mxGeometry>
        </mxCell>
        <mxCell id="7baba1c4bc27f4b0-3" value="PostGIS" style="shape=umlLifeline;perimeter=lifelinePerimeter;whiteSpace=wrap;html=1;container=1;collapsible=0;recursiveResize=0;outlineConnect=0;rounded=1;shadow=0;comic=0;labelBackgroundColor=none;strokeWidth=1;fontFamily=Helvetica;fontSize=12;align=center;fillColor=#f8cecc;strokeColor=#b85450;" parent="1" vertex="1">
          <mxGeometry x="420" y="80" width="120" height="1320" as="geometry" />
        </mxCell>
        <mxCell id="jPtnPKBCRb5HNoMUkQSy-24" style="edgeStyle=orthogonalEdgeStyle;rounded=0;orthogonalLoop=1;jettySize=auto;html=1;" parent="7baba1c4bc27f4b0-3" source="t_Ti84ju1iwW1GZTYooi-32" target="7baba1c4bc27f4b0-3" edge="1">
          <mxGeometry relative="1" as="geometry">
            <Array as="points">
              <mxPoint x="90" y="410" />
              <mxPoint x="90" y="410" />
            </Array>
          </mxGeometry>
        </mxCell>
        <mxCell id="t_Ti84ju1iwW1GZTYooi-32" value="" style="html=1;points=[];perimeter=orthogonalPerimeter;fillColor=#f8cecc;fontFamily=Helvetica;strokeColor=#b85450;" parent="7baba1c4bc27f4b0-3" vertex="1">
          <mxGeometry x="55" y="260" width="10" height="230" as="geometry" />
        </mxCell>
        <mxCell id="jPtnPKBCRb5HNoMUkQSy-12" value="" style="html=1;points=[];perimeter=orthogonalPerimeter;fillColor=#f8cecc;fontFamily=Helvetica;strokeColor=#b85450;" parent="7baba1c4bc27f4b0-3" vertex="1">
          <mxGeometry x="55" y="110" width="10" height="36" as="geometry" />
        </mxCell>
        <mxCell id="jPtnPKBCRb5HNoMUkQSy-14" value="&lt;span style=&quot;color: rgb(0, 0, 0); font-family: Helvetica; font-size: 9px; font-style: normal; font-variant-ligatures: normal; font-variant-caps: normal; font-weight: 400; letter-spacing: normal; orphans: 2; text-align: center; text-indent: 0px; text-transform: none; widows: 2; word-spacing: 0px; -webkit-text-stroke-width: 0px; background-color: rgb(251, 251, 251); text-decoration-thickness: initial; text-decoration-style: initial; text-decoration-color: initial; float: none; display: inline !important;&quot;&gt;Routable Network (Nodes, Vertices)&lt;/span&gt;" style="text;whiteSpace=wrap;html=1;fontSize=9;" parent="7baba1c4bc27f4b0-3" vertex="1">
          <mxGeometry x="70" y="100" width="40" height="40" as="geometry" />
        </mxCell>
        <mxCell id="jPtnPKBCRb5HNoMUkQSy-15" style="edgeStyle=orthogonalEdgeStyle;rounded=0;orthogonalLoop=1;jettySize=auto;html=1;exitX=0.5;exitY=1;exitDx=0;exitDy=0;" parent="7baba1c4bc27f4b0-3" source="jPtnPKBCRb5HNoMUkQSy-14" target="jPtnPKBCRb5HNoMUkQSy-14" edge="1">
          <mxGeometry relative="1" as="geometry" />
        </mxCell>
        <mxCell id="yroGHbSk9mLoKnZrlHjl-19" value="" style="html=1;verticalAlign=bottom;endArrow=block;rounded=0;endFill=1;endSize=6;fontFamily=Helvetica;exitX=1.143;exitY=0.544;exitDx=0;exitDy=0;exitPerimeter=0;" parent="7baba1c4bc27f4b0-3" target="yroGHbSk9mLoKnZrlHjl-24" edge="1">
          <mxGeometry x="0.0032" relative="1" as="geometry">
            <mxPoint x="-110" y="630" as="sourcePoint" />
            <mxPoint as="offset" />
            <mxPoint x="40" y="630" as="targetPoint" />
          </mxGeometry>
        </mxCell>
        <mxCell id="yroGHbSk9mLoKnZrlHjl-20" value="Find nearest node" style="edgeLabel;html=1;align=center;verticalAlign=bottom;resizable=0;points=[];fontColor=#0000FF;" parent="yroGHbSk9mLoKnZrlHjl-19" vertex="1" connectable="0">
          <mxGeometry relative="1" as="geometry">
            <mxPoint as="offset" />
          </mxGeometry>
        </mxCell>
        <mxCell id="yroGHbSk9mLoKnZrlHjl-24" value="" style="html=1;points=[];perimeter=orthogonalPerimeter;fillColor=#f8cecc;fontFamily=Helvetica;strokeColor=#b85450;" parent="7baba1c4bc27f4b0-3" vertex="1">
          <mxGeometry x="55" y="620" width="10" height="120" as="geometry" />
        </mxCell>
        <mxCell id="yroGHbSk9mLoKnZrlHjl-21" value="" style="html=1;verticalAlign=bottom;endArrow=block;rounded=0;endFill=1;endSize=6;fontFamily=Helvetica;exitX=1.143;exitY=0.544;exitDx=0;exitDy=0;exitPerimeter=0;" parent="7baba1c4bc27f4b0-3" target="yroGHbSk9mLoKnZrlHjl-24" edge="1">
          <mxGeometry x="0.0032" relative="1" as="geometry">
            <mxPoint x="-110" y="660" as="sourcePoint" />
            <mxPoint as="offset" />
            <mxPoint x="40" y="660" as="targetPoint" />
          </mxGeometry>
        </mxCell>
        <mxCell id="yroGHbSk9mLoKnZrlHjl-22" value="pgr_drivingDistance" style="edgeLabel;html=1;align=center;verticalAlign=bottom;resizable=0;points=[];fontColor=#0000FF;" parent="yroGHbSk9mLoKnZrlHjl-21" vertex="1" connectable="0">
          <mxGeometry relative="1" as="geometry">
            <mxPoint as="offset" />
          </mxGeometry>
        </mxCell>
        <mxCell id="yroGHbSk9mLoKnZrlHjl-26" value="" style="html=1;verticalAlign=bottom;endArrow=block;rounded=0;endFill=1;endSize=6;fontFamily=Helvetica;exitX=1.143;exitY=0.544;exitDx=0;exitDy=0;exitPerimeter=0;" parent="7baba1c4bc27f4b0-3" target="yroGHbSk9mLoKnZrlHjl-24" edge="1">
          <mxGeometry x="0.0032" relative="1" as="geometry">
            <mxPoint x="-110" y="690" as="sourcePoint" />
            <mxPoint as="offset" />
            <mxPoint x="40" y="690" as="targetPoint" />
          </mxGeometry>
        </mxCell>
        <mxCell id="yroGHbSk9mLoKnZrlHjl-27" value="ST_OptimalAlphaShape" style="edgeLabel;html=1;align=center;verticalAlign=bottom;resizable=0;points=[];fontColor=#0000FF;" parent="yroGHbSk9mLoKnZrlHjl-26" vertex="1" connectable="0">
          <mxGeometry relative="1" as="geometry">
            <mxPoint as="offset" />
          </mxGeometry>
        </mxCell>
        <mxCell id="yroGHbSk9mLoKnZrlHjl-28" value="&lt;font style=&quot;font-size: 11px&quot;&gt;return isochrone polygon&lt;/font&gt;" style="html=1;verticalAlign=bottom;endArrow=none;labelBackgroundColor=default;fontFamily=Helvetica;fontSize=11;edgeStyle=elbowEdgeStyle;elbow=vertical;dashed=1;startArrow=block;startFill=1;endFill=0;rounded=0;endSize=6;" parent="7baba1c4bc27f4b0-3" target="yroGHbSk9mLoKnZrlHjl-24" edge="1">
          <mxGeometry relative="1" as="geometry">
            <mxPoint x="-110" y="720" as="sourcePoint" />
            <mxPoint x="40" y="720" as="targetPoint" />
            <Array as="points">
              <mxPoint x="-110" y="720" />
            </Array>
          </mxGeometry>
        </mxCell>
        <mxCell id="yroGHbSk9mLoKnZrlHjl-41" value="" style="html=1;verticalAlign=bottom;endArrow=block;rounded=0;endFill=1;endSize=6;fontFamily=Helvetica;exitX=1.143;exitY=0.544;exitDx=0;exitDy=0;exitPerimeter=0;" parent="7baba1c4bc27f4b0-3" target="yroGHbSk9mLoKnZrlHjl-30" edge="1">
          <mxGeometry x="0.0032" relative="1" as="geometry">
            <mxPoint x="-110" y="900" as="sourcePoint" />
            <mxPoint as="offset" />
            <mxPoint x="40" y="900" as="targetPoint" />
          </mxGeometry>
        </mxCell>
        <mxCell id="yroGHbSk9mLoKnZrlHjl-42" value="pgr_drivingDistance" style="edgeLabel;html=1;align=center;verticalAlign=bottom;resizable=0;points=[];fontColor=#0000FF;" parent="yroGHbSk9mLoKnZrlHjl-41" vertex="1" connectable="0">
          <mxGeometry relative="1" as="geometry">
            <mxPoint as="offset" />
          </mxGeometry>
        </mxCell>
        <mxCell id="yroGHbSk9mLoKnZrlHjl-43" value="" style="html=1;verticalAlign=bottom;endArrow=block;rounded=0;endFill=1;endSize=6;fontFamily=Helvetica;exitX=1.143;exitY=0.544;exitDx=0;exitDy=0;exitPerimeter=0;" parent="7baba1c4bc27f4b0-3" target="yroGHbSk9mLoKnZrlHjl-30" edge="1">
          <mxGeometry x="0.0032" relative="1" as="geometry">
            <mxPoint x="-110" y="930" as="sourcePoint" />
            <mxPoint as="offset" />
            <mxPoint x="40" y="930" as="targetPoint" />
          </mxGeometry>
        </mxCell>
        <mxCell id="yroGHbSk9mLoKnZrlHjl-44" value="ST_OptimalAlphaShape" style="edgeLabel;html=1;align=center;verticalAlign=bottom;resizable=0;points=[];fontColor=#0000FF;" parent="yroGHbSk9mLoKnZrlHjl-43" vertex="1" connectable="0">
          <mxGeometry relative="1" as="geometry">
            <mxPoint as="offset" />
          </mxGeometry>
        </mxCell>
        <mxCell id="yroGHbSk9mLoKnZrlHjl-45" value="&lt;font style=&quot;font-size: 11px&quot;&gt;return isochrone polygon&lt;/font&gt;" style="html=1;verticalAlign=bottom;endArrow=none;labelBackgroundColor=default;fontFamily=Helvetica;fontSize=11;edgeStyle=elbowEdgeStyle;elbow=vertical;dashed=1;startArrow=block;startFill=1;endFill=0;rounded=0;endSize=6;" parent="7baba1c4bc27f4b0-3" target="7baba1c4bc27f4b0-3" edge="1">
          <mxGeometry relative="1" as="geometry">
            <mxPoint x="-110" y="960" as="sourcePoint" />
            <mxPoint x="30" y="960" as="targetPoint" />
            <Array as="points">
              <mxPoint x="-110" y="960" />
            </Array>
          </mxGeometry>
        </mxCell>
        <mxCell id="p0byIvA4VLlAtnDWS7G8-3" value="" style="html=1;verticalAlign=bottom;endArrow=block;rounded=0;endFill=1;endSize=6;fontFamily=Helvetica;exitX=1.143;exitY=0.544;exitDx=0;exitDy=0;exitPerimeter=0;" parent="7baba1c4bc27f4b0-3" target="p0byIvA4VLlAtnDWS7G8-9" edge="1">
          <mxGeometry x="0.0032" relative="1" as="geometry">
            <mxPoint x="-110" y="1160" as="sourcePoint" />
            <mxPoint as="offset" />
            <mxPoint x="40" y="1160" as="targetPoint" />
          </mxGeometry>
        </mxCell>
        <mxCell id="p0byIvA4VLlAtnDWS7G8-4" value="Find closest node" style="edgeLabel;html=1;align=center;verticalAlign=bottom;resizable=0;points=[];fontColor=#0000FF;" parent="p0byIvA4VLlAtnDWS7G8-3" vertex="1" connectable="0">
          <mxGeometry relative="1" as="geometry">
            <mxPoint as="offset" />
          </mxGeometry>
        </mxCell>
        <mxCell id="p0byIvA4VLlAtnDWS7G8-5" value="" style="html=1;verticalAlign=bottom;endArrow=block;rounded=0;endFill=1;endSize=6;fontFamily=Helvetica;exitX=1.143;exitY=0.544;exitDx=0;exitDy=0;exitPerimeter=0;" parent="7baba1c4bc27f4b0-3" target="p0byIvA4VLlAtnDWS7G8-9" edge="1">
          <mxGeometry x="0.0032" relative="1" as="geometry">
            <mxPoint x="-110" y="1190" as="sourcePoint" />
            <mxPoint as="offset" />
            <mxPoint x="40" y="1190" as="targetPoint" />
          </mxGeometry>
        </mxCell>
        <mxCell id="p0byIvA4VLlAtnDWS7G8-6" value="pgr_dijkstraCostMatrix" style="edgeLabel;html=1;align=center;verticalAlign=bottom;resizable=0;points=[];fontColor=#0000FF;" parent="p0byIvA4VLlAtnDWS7G8-5" vertex="1" connectable="0">
          <mxGeometry relative="1" as="geometry">
            <mxPoint as="offset" />
          </mxGeometry>
        </mxCell>
        <mxCell id="p0byIvA4VLlAtnDWS7G8-8" value="&lt;span style=&quot;font-size: 11px;&quot;&gt;Input Points of &lt;br&gt;Interest&lt;/span&gt;" style="html=1;verticalAlign=bottom;endArrow=block;labelBackgroundColor=none;fontFamily=Helvetica;fontSize=12;edgeStyle=elbowEdgeStyle;elbow=vertical;" parent="7baba1c4bc27f4b0-3" edge="1">
          <mxGeometry relative="1" as="geometry">
            <mxPoint x="-220" y="1060.03" as="sourcePoint" />
            <mxPoint as="offset" />
            <mxPoint x="-120" y="1060.03" as="targetPoint" />
          </mxGeometry>
        </mxCell>
        <mxCell id="p0byIvA4VLlAtnDWS7G8-9" value="" style="html=1;points=[];perimeter=orthogonalPerimeter;fillColor=#f8cecc;fontFamily=Helvetica;strokeColor=#b85450;" parent="7baba1c4bc27f4b0-3" vertex="1">
          <mxGeometry x="55" y="1100" width="10" height="170" as="geometry" />
        </mxCell>
        <mxCell id="p0byIvA4VLlAtnDWS7G8-12" value="" style="html=1;verticalAlign=bottom;endArrow=block;rounded=0;endFill=1;endSize=6;fontFamily=Helvetica;" parent="7baba1c4bc27f4b0-3" target="p0byIvA4VLlAtnDWS7G8-9" edge="1">
          <mxGeometry x="0.0032" relative="1" as="geometry">
            <mxPoint x="-110" y="1130" as="sourcePoint" />
            <mxPoint as="offset" />
            <mxPoint x="50" y="1130" as="targetPoint" />
          </mxGeometry>
        </mxCell>
        <mxCell id="p0byIvA4VLlAtnDWS7G8-13" value="pgr_findClosestEdge" style="edgeLabel;html=1;align=center;verticalAlign=bottom;resizable=0;points=[];fontColor=#0000FF;" parent="p0byIvA4VLlAtnDWS7G8-12" vertex="1" connectable="0">
          <mxGeometry relative="1" as="geometry">
            <mxPoint as="offset" />
          </mxGeometry>
        </mxCell>
        <mxCell id="p0byIvA4VLlAtnDWS7G8-14" value="" style="html=1;points=[];perimeter=orthogonalPerimeter;rounded=0;shadow=0;comic=0;labelBackgroundColor=none;strokeWidth=1;fontFamily=Helvetica;fontSize=12;align=center;fillColor=#fff2cc;strokeColor=#d6b656;" parent="7baba1c4bc27f4b0-3" vertex="1">
          <mxGeometry x="-120" y="1040" width="10" height="240" as="geometry" />
        </mxCell>
        <mxCell id="7baba1c4bc27f4b0-4" value="TWA KG" style="shape=umlLifeline;perimeter=lifelinePerimeter;whiteSpace=wrap;html=1;container=1;collapsible=0;recursiveResize=0;outlineConnect=0;rounded=1;shadow=0;comic=0;labelBackgroundColor=none;strokeWidth=1;fontFamily=Helvetica;fontSize=12;align=center;fillColor=#d5e8d4;strokeColor=#82b366;" parent="1" vertex="1">
          <mxGeometry x="570" y="80" width="100" height="1320" as="geometry" />
        </mxCell>
        <mxCell id="jPtnPKBCRb5HNoMUkQSy-8" value="" style="html=1;points=[];perimeter=orthogonalPerimeter;fillColor=#d5e8d4;fontFamily=Helvetica;strokeColor=#82b366;" parent="7baba1c4bc27f4b0-4" vertex="1">
          <mxGeometry x="44.5" y="191.12" width="10" height="30" as="geometry" />
        </mxCell>
        <mxCell id="yroGHbSk9mLoKnZrlHjl-8" value="" style="endArrow=none;dashed=1;html=1;rounded=0;" parent="7baba1c4bc27f4b0-4" edge="1">
          <mxGeometry width="50" height="50" relative="1" as="geometry">
            <mxPoint x="-540" y="340" as="sourcePoint" />
            <mxPoint x="110" y="340" as="targetPoint" />
          </mxGeometry>
        </mxCell>
        <mxCell id="yroGHbSk9mLoKnZrlHjl-14" value="" style="html=1;points=[];perimeter=orthogonalPerimeter;fillColor=#d5e8d4;fontFamily=Helvetica;strokeColor=#82b366;" parent="7baba1c4bc27f4b0-4" vertex="1">
          <mxGeometry x="44.5" y="560" width="10" height="31.12" as="geometry" />
        </mxCell>
        <mxCell id="yroGHbSk9mLoKnZrlHjl-15" value="query points of interest coordinates" style="html=1;verticalAlign=bottom;endArrow=block;rounded=0;endFill=1;endSize=6;fontFamily=Helvetica;exitX=1.02;exitY=0.202;exitDx=0;exitDy=0;exitPerimeter=0;entryX=0.189;entryY=0.011;entryDx=0;entryDy=0;entryPerimeter=0;" parent="7baba1c4bc27f4b0-4" target="yroGHbSk9mLoKnZrlHjl-14" edge="1">
          <mxGeometry x="0.0017" relative="1" as="geometry">
            <mxPoint x="-260.30000000000007" y="560" as="sourcePoint" />
            <mxPoint as="offset" />
            <mxPoint x="39.5" y="560" as="targetPoint" />
          </mxGeometry>
        </mxCell>
        <mxCell id="yroGHbSk9mLoKnZrlHjl-16" value="return data" style="html=1;verticalAlign=bottom;endArrow=block;dashed=1;endSize=6;exitX=0.046;exitY=0.992;rounded=0;endFill=1;fontFamily=Helvetica;entryX=1.167;entryY=0.271;entryDx=0;entryDy=0;entryPerimeter=0;exitDx=0;exitDy=0;exitPerimeter=0;" parent="7baba1c4bc27f4b0-4" source="yroGHbSk9mLoKnZrlHjl-14" edge="1">
          <mxGeometry relative="1" as="geometry">
            <mxPoint x="-258.83000000000004" y="590.36" as="targetPoint" />
            <mxPoint x="44.5" y="630.5200000000001" as="sourcePoint" />
          </mxGeometry>
        </mxCell>
        <mxCell id="p0byIvA4VLlAtnDWS7G8-23" value="" style="html=1;points=[];perimeter=orthogonalPerimeter;fillColor=#d5e8d4;fontFamily=Helvetica;strokeColor=#82b366;" parent="7baba1c4bc27f4b0-4" vertex="1">
          <mxGeometry x="44.5" y="1061.12" width="10" height="30" as="geometry" />
        </mxCell>
        <mxCell id="p0byIvA4VLlAtnDWS7G8-24" value="query potholes coordinates" style="html=1;verticalAlign=bottom;endArrow=block;entryX=0;entryY=0;rounded=0;endFill=1;endSize=6;fontFamily=Helvetica;exitX=1.02;exitY=0.202;exitDx=0;exitDy=0;exitPerimeter=0;" parent="7baba1c4bc27f4b0-4" target="p0byIvA4VLlAtnDWS7G8-23" edge="1">
          <mxGeometry x="0.0017" relative="1" as="geometry">
            <mxPoint x="-260.3" y="1060" as="sourcePoint" />
            <mxPoint as="offset" />
          </mxGeometry>
        </mxCell>
        <mxCell id="p0byIvA4VLlAtnDWS7G8-25" value="return data" style="html=1;verticalAlign=bottom;endArrow=block;dashed=1;endSize=6;exitX=0.046;exitY=0.992;rounded=0;endFill=1;fontFamily=Helvetica;entryX=1.167;entryY=0.271;entryDx=0;entryDy=0;entryPerimeter=0;exitDx=0;exitDy=0;exitPerimeter=0;" parent="7baba1c4bc27f4b0-4" source="p0byIvA4VLlAtnDWS7G8-23" edge="1">
          <mxGeometry relative="1" as="geometry">
            <mxPoint x="-258.83" y="1090.3600000000001" as="targetPoint" />
            <mxPoint x="44.5" y="1130.52" as="sourcePoint" />
          </mxGeometry>
        </mxCell>
        <mxCell id="t_Ti84ju1iwW1GZTYooi-51" value="&lt;font style=&quot;font-size: 11px&quot;&gt;[alternative]&lt;/font&gt;" style="rounded=0;whiteSpace=wrap;html=1;fillColor=none;strokeColor=none;fontFamily=Helvetica;" parent="1" vertex="1">
          <mxGeometry x="140" y="190" width="60" height="60" as="geometry" />
        </mxCell>
        <mxCell id="t_Ti84ju1iwW1GZTYooi-62" value="" style="endArrow=none;dashed=1;html=1;rounded=0;labelBackgroundColor=#FFFFFF;fontFamily=Helvetica;fontSize=11;endSize=6;fillColor=#f5f5f5;strokeColor=#666666;" parent="1" edge="1">
          <mxGeometry width="50" height="50" relative="1" as="geometry">
            <mxPoint x="200" y="1400" as="sourcePoint" />
            <mxPoint x="199.8" y="118" as="targetPoint" />
          </mxGeometry>
        </mxCell>
        <mxCell id="t_Ti84ju1iwW1GZTYooi-63" value="" style="shape=actor;whiteSpace=wrap;html=1;fontFamily=Helvetica;fontSize=11;fillColor=#f5f5f5;strokeColor=#666666;fontColor=#333333;" parent="1" vertex="1">
          <mxGeometry x="180" y="79" width="40" height="40" as="geometry" />
        </mxCell>
        <mxCell id="jPtnPKBCRb5HNoMUkQSy-3" value="&lt;span style=&quot;font-size: 11px;&quot;&gt;Import data via osm2pgrouting&lt;br&gt;&lt;/span&gt;" style="html=1;verticalAlign=bottom;endArrow=block;labelBackgroundColor=none;fontFamily=Helvetica;fontSize=12;edgeStyle=elbowEdgeStyle;elbow=vertical;exitX=1.092;exitY=0.124;exitDx=0;exitDy=0;exitPerimeter=0;entryX=0.101;entryY=0.33;entryDx=0;entryDy=0;entryPerimeter=0;" parent="1" target="jPtnPKBCRb5HNoMUkQSy-12" edge="1">
          <mxGeometry x="-0.0022" relative="1" as="geometry">
            <mxPoint x="310.91999999999996" y="200.56" as="sourcePoint" />
            <mxPoint as="offset" />
            <mxPoint x="470" y="201" as="targetPoint" />
            <Array as="points">
              <mxPoint x="470" y="201" />
            </Array>
          </mxGeometry>
        </mxCell>
        <mxCell id="jPtnPKBCRb5HNoMUkQSy-7" value="&lt;span style=&quot;font-size: 11px;&quot;&gt;pgr_Topology&lt;br&gt;&lt;/span&gt;" style="html=1;verticalAlign=bottom;endArrow=block;labelBackgroundColor=none;fontFamily=Helvetica;fontSize=12;edgeStyle=elbowEdgeStyle;elbow=vertical;entryX=0.101;entryY=0.846;entryDx=0;entryDy=0;entryPerimeter=0;" parent="1" target="jPtnPKBCRb5HNoMUkQSy-12" edge="1">
          <mxGeometry relative="1" as="geometry">
            <mxPoint x="310" y="220" as="sourcePoint" />
            <mxPoint as="offset" />
            <mxPoint x="470" y="220" as="targetPoint" />
            <Array as="points">
              <mxPoint x="470" y="220" />
              <mxPoint x="475" y="230" />
              <mxPoint x="410" y="210" />
            </Array>
          </mxGeometry>
        </mxCell>
        <mxCell id="jPtnPKBCRb5HNoMUkQSy-9" value="query flood/elevation data" style="html=1;verticalAlign=bottom;endArrow=block;entryX=0;entryY=0;rounded=0;endFill=1;endSize=6;fontFamily=Helvetica;exitX=1.02;exitY=0.202;exitDx=0;exitDy=0;exitPerimeter=0;" parent="1" target="jPtnPKBCRb5HNoMUkQSy-8" edge="1">
          <mxGeometry x="0.0017" relative="1" as="geometry">
            <mxPoint x="309.69999999999993" y="270" as="sourcePoint" />
            <mxPoint as="offset" />
          </mxGeometry>
        </mxCell>
        <mxCell id="t_Ti84ju1iwW1GZTYooi-21" value="return data as TIF" style="html=1;verticalAlign=bottom;endArrow=block;dashed=1;endSize=6;exitX=0.046;exitY=0.992;rounded=0;endFill=1;fontFamily=Helvetica;entryX=1.167;entryY=0.271;entryDx=0;entryDy=0;entryPerimeter=0;exitDx=0;exitDy=0;exitPerimeter=0;" parent="1" source="jPtnPKBCRb5HNoMUkQSy-8" edge="1">
          <mxGeometry relative="1" as="geometry">
            <mxPoint x="311.16999999999996" y="300.36" as="targetPoint" />
            <mxPoint x="614.5" y="340.5200000000001" as="sourcePoint" />
          </mxGeometry>
        </mxCell>
        <mxCell id="jPtnPKBCRb5HNoMUkQSy-18" value="&lt;font style=&quot;font-size: 11px&quot;&gt;Import ShapeFile&lt;/font&gt;" style="html=1;verticalAlign=bottom;endArrow=block;labelBackgroundColor=none;fontFamily=Helvetica;fontSize=12;edgeStyle=elbowEdgeStyle;elbow=vertical;" parent="1" edge="1">
          <mxGeometry relative="1" as="geometry">
            <mxPoint x="200" y="200" as="sourcePoint" />
            <mxPoint as="offset" />
            <mxPoint x="300" y="200" as="targetPoint" />
            <Array as="points">
              <mxPoint x="290" y="200" />
            </Array>
          </mxGeometry>
        </mxCell>
        <mxCell id="jPtnPKBCRb5HNoMUkQSy-19" value="&lt;span style=&quot;font-size: 11px;&quot;&gt;Create Extension pg_Routing&amp;nbsp;&lt;br&gt;&lt;/span&gt;" style="html=1;verticalAlign=bottom;endArrow=block;labelBackgroundColor=none;fontFamily=Helvetica;fontSize=12;edgeStyle=elbowEdgeStyle;elbow=vertical;entryX=0.125;entryY=0.076;entryDx=0;entryDy=0;entryPerimeter=0;" parent="1" edge="1">
          <mxGeometry relative="1" as="geometry">
            <mxPoint x="310" y="160" as="sourcePoint" />
            <mxPoint as="offset" />
            <mxPoint x="476" y="160" as="targetPoint" />
            <Array as="points">
              <mxPoint x="470" y="160" />
            </Array>
          </mxGeometry>
        </mxCell>
        <mxCell id="jPtnPKBCRb5HNoMUkQSy-20" value="Import flood/elevation &lt;br&gt;via raster2pgsql" style="html=1;verticalAlign=bottom;endArrow=block;rounded=0;endFill=1;endSize=6;fontFamily=Helvetica;exitX=1.062;exitY=0.478;exitDx=0;exitDy=0;exitPerimeter=0;" parent="1" source="7baba1c4bc27f4b0-10" target="t_Ti84ju1iwW1GZTYooi-32" edge="1">
          <mxGeometry x="0.0032" relative="1" as="geometry">
            <mxPoint x="320" y="350" as="sourcePoint" />
            <mxPoint as="offset" />
            <mxPoint x="470" y="350" as="targetPoint" />
          </mxGeometry>
        </mxCell>
        <mxCell id="jPtnPKBCRb5HNoMUkQSy-35" value="" style="rounded=1;whiteSpace=wrap;html=1;" parent="1" vertex="1">
          <mxGeometry x="630" y="20" width="190" height="51" as="geometry" />
        </mxCell>
        <mxCell id="jPtnPKBCRb5HNoMUkQSy-36" value="" style="rounded=0;whiteSpace=wrap;html=1;fillColor=#dae8fc;strokeColor=#6c8ebf;" parent="1" vertex="1">
          <mxGeometry x="640" y="30" width="40" height="20" as="geometry" />
        </mxCell>
        <mxCell id="jPtnPKBCRb5HNoMUkQSy-37" value="Blue coloured texts refers to SQL Query" style="text;html=1;strokeColor=none;fillColor=none;align=center;verticalAlign=middle;whiteSpace=wrap;rounded=0;fontSize=10;fontColor=#3333FF;" parent="1" vertex="1">
          <mxGeometry x="680" y="30" width="140" height="30" as="geometry" />
        </mxCell>
        <mxCell id="jPtnPKBCRb5HNoMUkQSy-38" value="" style="html=1;verticalAlign=bottom;endArrow=block;rounded=0;endFill=1;endSize=6;fontFamily=Helvetica;" parent="1" target="t_Ti84ju1iwW1GZTYooi-32" edge="1">
          <mxGeometry x="0.0032" relative="1" as="geometry">
            <mxPoint x="310" y="480" as="sourcePoint" />
            <mxPoint as="offset" />
            <mxPoint x="470" y="480" as="targetPoint" />
          </mxGeometry>
        </mxCell>
        <mxCell id="jPtnPKBCRb5HNoMUkQSy-39" value="Modify cost_flood for &lt;br&gt;ways that intersects with flood" style="edgeLabel;html=1;align=center;verticalAlign=bottom;resizable=0;points=[];fontColor=#0000FF;" parent="jPtnPKBCRb5HNoMUkQSy-38" vertex="1" connectable="0">
          <mxGeometry relative="1" as="geometry">
            <mxPoint as="offset" />
          </mxGeometry>
        </mxCell>
        <mxCell id="yroGHbSk9mLoKnZrlHjl-3" value="" style="html=1;verticalAlign=bottom;endArrow=block;rounded=0;endFill=1;endSize=6;fontFamily=Helvetica;exitX=1.143;exitY=0.544;exitDx=0;exitDy=0;exitPerimeter=0;entryX=0.016;entryY=0.877;entryDx=0;entryDy=0;entryPerimeter=0;" parent="1" edge="1">
          <mxGeometry x="0.0032" relative="1" as="geometry">
            <mxPoint x="310" y="510.00000000000006" as="sourcePoint" />
            <mxPoint as="offset" />
            <mxPoint x="475" y="510.00000000000006" as="targetPoint" />
          </mxGeometry>
        </mxCell>
        <mxCell id="yroGHbSk9mLoKnZrlHjl-4" value="pgr_Djikstra" style="edgeLabel;html=1;align=center;verticalAlign=bottom;resizable=0;points=[];fontColor=#0000FF;" parent="yroGHbSk9mLoKnZrlHjl-3" vertex="1" connectable="0">
          <mxGeometry relative="1" as="geometry">
            <mxPoint as="offset" />
          </mxGeometry>
        </mxCell>
        <mxCell id="yroGHbSk9mLoKnZrlHjl-6" value="&lt;font style=&quot;font-size: 11px&quot;&gt;Input point A/&lt;br&gt;Point B&lt;/font&gt;" style="html=1;verticalAlign=bottom;endArrow=block;labelBackgroundColor=none;fontFamily=Helvetica;fontSize=12;edgeStyle=elbowEdgeStyle;elbow=vertical;" parent="1" edge="1">
          <mxGeometry relative="1" as="geometry">
            <mxPoint x="200" y="510.00000000000006" as="sourcePoint" />
            <mxPoint as="offset" />
            <mxPoint x="300" y="510.00000000000006" as="targetPoint" />
          </mxGeometry>
        </mxCell>
        <mxCell id="yroGHbSk9mLoKnZrlHjl-7" value="&lt;font style=&quot;font-size: 11px&quot;&gt;return data&lt;/font&gt;" style="html=1;verticalAlign=bottom;endArrow=none;labelBackgroundColor=default;fontFamily=Helvetica;fontSize=11;edgeStyle=elbowEdgeStyle;elbow=vertical;dashed=1;startArrow=block;startFill=1;endFill=0;rounded=0;endSize=6;" parent="1" target="t_Ti84ju1iwW1GZTYooi-32" edge="1">
          <mxGeometry relative="1" as="geometry">
            <mxPoint x="310" y="550" as="sourcePoint" />
            <mxPoint x="470" y="550" as="targetPoint" />
            <Array as="points">
              <mxPoint x="310" y="550" />
            </Array>
          </mxGeometry>
        </mxCell>
        <mxCell id="yroGHbSk9mLoKnZrlHjl-12" value="&lt;span style=&quot;font-size: 11px;&quot;&gt;Input Points of &lt;br&gt;Interest&lt;/span&gt;" style="html=1;verticalAlign=bottom;endArrow=block;labelBackgroundColor=none;fontFamily=Helvetica;fontSize=12;edgeStyle=elbowEdgeStyle;elbow=vertical;" parent="1" edge="1">
          <mxGeometry relative="1" as="geometry">
            <mxPoint x="200" y="640" as="sourcePoint" />
            <mxPoint as="offset" />
            <mxPoint x="300" y="640" as="targetPoint" />
          </mxGeometry>
        </mxCell>
        <mxCell id="yroGHbSk9mLoKnZrlHjl-17" value="" style="html=1;points=[];perimeter=orthogonalPerimeter;rounded=0;shadow=0;comic=0;labelBackgroundColor=none;strokeWidth=1;fontFamily=Helvetica;fontSize=12;align=center;fillColor=#fff2cc;strokeColor=#d6b656;" parent="1" vertex="1">
          <mxGeometry x="300" y="610" width="10" height="210" as="geometry" />
        </mxCell>
        <mxCell id="yroGHbSk9mLoKnZrlHjl-29" value="&lt;span style=&quot;font-size: 11px;&quot;&gt;Input Points of &lt;br&gt;Interest&lt;/span&gt;" style="html=1;verticalAlign=bottom;endArrow=block;labelBackgroundColor=none;fontFamily=Helvetica;fontSize=12;edgeStyle=elbowEdgeStyle;elbow=vertical;" parent="1" edge="1">
          <mxGeometry relative="1" as="geometry">
            <mxPoint x="200" y="880.03" as="sourcePoint" />
            <mxPoint as="offset" />
            <mxPoint x="300" y="880.03" as="targetPoint" />
          </mxGeometry>
        </mxCell>
        <mxCell id="yroGHbSk9mLoKnZrlHjl-30" value="" style="html=1;points=[];perimeter=orthogonalPerimeter;fillColor=#f8cecc;fontFamily=Helvetica;strokeColor=#b85450;" parent="1" vertex="1">
          <mxGeometry x="475" y="860" width="10" height="200" as="geometry" />
        </mxCell>
        <mxCell id="yroGHbSk9mLoKnZrlHjl-31" value="" style="html=1;verticalAlign=bottom;endArrow=block;rounded=0;endFill=1;endSize=6;fontFamily=Helvetica;exitX=1.143;exitY=0.544;exitDx=0;exitDy=0;exitPerimeter=0;entryX=0.077;entryY=0.095;entryDx=0;entryDy=0;entryPerimeter=0;" parent="1" target="yroGHbSk9mLoKnZrlHjl-30" edge="1">
          <mxGeometry x="0.0032" relative="1" as="geometry">
            <mxPoint x="310" y="880" as="sourcePoint" />
            <mxPoint as="offset" />
            <mxPoint x="460" y="880" as="targetPoint" />
          </mxGeometry>
        </mxCell>
        <mxCell id="yroGHbSk9mLoKnZrlHjl-32" value="Calculate Trip Centrality" style="edgeLabel;html=1;align=center;verticalAlign=bottom;resizable=0;points=[];fontColor=#0000FF;" parent="yroGHbSk9mLoKnZrlHjl-31" vertex="1" connectable="0">
          <mxGeometry relative="1" as="geometry">
            <mxPoint as="offset" />
          </mxGeometry>
        </mxCell>
        <mxCell id="yroGHbSk9mLoKnZrlHjl-37" value="" style="html=1;verticalAlign=bottom;endArrow=block;rounded=0;endFill=1;endSize=6;fontFamily=Helvetica;" parent="1" target="yroGHbSk9mLoKnZrlHjl-30" edge="1">
          <mxGeometry x="0.0032" relative="1" as="geometry">
            <mxPoint x="310" y="950" as="sourcePoint" />
            <mxPoint as="offset" />
            <mxPoint x="470" y="950" as="targetPoint" />
          </mxGeometry>
        </mxCell>
        <mxCell id="yroGHbSk9mLoKnZrlHjl-38" value="Modify cost_flood of route&lt;br&gt;with highest trip centrality" style="edgeLabel;html=1;align=center;verticalAlign=bottom;resizable=0;points=[];fontColor=#0000FF;" parent="yroGHbSk9mLoKnZrlHjl-37" vertex="1" connectable="0">
          <mxGeometry relative="1" as="geometry">
            <mxPoint as="offset" />
          </mxGeometry>
        </mxCell>
        <mxCell id="yroGHbSk9mLoKnZrlHjl-46" value="" style="html=1;points=[];perimeter=orthogonalPerimeter;rounded=0;shadow=0;comic=0;labelBackgroundColor=none;strokeWidth=1;fontFamily=Helvetica;fontSize=12;align=center;fillColor=#fff2cc;strokeColor=#d6b656;" parent="1" vertex="1">
          <mxGeometry x="300" y="860" width="10" height="200" as="geometry" />
        </mxCell>
        <mxCell id="yroGHbSk9mLoKnZrlHjl-48" value="" style="endArrow=none;dashed=1;html=1;rounded=0;" parent="1" edge="1">
          <mxGeometry width="50" height="50" relative="1" as="geometry">
            <mxPoint x="30" y="600" as="sourcePoint" />
            <mxPoint x="680" y="600" as="targetPoint" />
          </mxGeometry>
        </mxCell>
        <mxCell id="yroGHbSk9mLoKnZrlHjl-49" value="" style="endArrow=none;dashed=1;html=1;rounded=0;" parent="1" edge="1">
          <mxGeometry width="50" height="50" relative="1" as="geometry">
            <mxPoint x="30" y="840" as="sourcePoint" />
            <mxPoint x="680" y="840" as="targetPoint" />
          </mxGeometry>
        </mxCell>
        <mxCell id="yroGHbSk9mLoKnZrlHjl-51" value="Shortest Route from &lt;br&gt;Point A to Point B under flood&amp;nbsp;" style="text;html=1;strokeColor=none;fillColor=none;align=center;verticalAlign=middle;whiteSpace=wrap;rounded=0;" parent="1" vertex="1">
          <mxGeometry x="30" y="370" width="110" height="50" as="geometry" />
        </mxCell>
        <mxCell id="yroGHbSk9mLoKnZrlHjl-53" value="Isochrone Map under flood" style="text;html=1;strokeColor=none;fillColor=none;align=center;verticalAlign=middle;whiteSpace=wrap;rounded=0;" parent="1" vertex="1">
          <mxGeometry x="30" y="560" width="110" height="40" as="geometry" />
        </mxCell>
        <mxCell id="yroGHbSk9mLoKnZrlHjl-54" value="Trips Centrality" style="text;html=1;strokeColor=none;fillColor=none;align=center;verticalAlign=middle;whiteSpace=wrap;rounded=0;" parent="1" vertex="1">
          <mxGeometry x="30" y="800" width="110" height="40" as="geometry" />
        </mxCell>
        <mxCell id="jPtnPKBCRb5HNoMUkQSy-28" value="" style="html=1;verticalAlign=bottom;endArrow=block;rounded=0;endFill=1;endSize=6;fontFamily=Helvetica;exitX=1.071;exitY=0.623;exitDx=0;exitDy=0;exitPerimeter=0;" parent="1" source="7baba1c4bc27f4b0-10" target="t_Ti84ju1iwW1GZTYooi-32" edge="1">
          <mxGeometry x="0.0032" relative="1" as="geometry">
            <mxPoint x="315" y="410" as="sourcePoint" />
            <mxPoint as="offset" />
            <mxPoint x="470" y="411" as="targetPoint" />
          </mxGeometry>
        </mxCell>
        <mxCell id="jPtnPKBCRb5HNoMUkQSy-29" value="Calculate Slope" style="edgeLabel;html=1;align=center;verticalAlign=bottom;resizable=0;points=[];fontColor=#0000FF;" parent="jPtnPKBCRb5HNoMUkQSy-28" vertex="1" connectable="0">
          <mxGeometry relative="1" as="geometry">
            <mxPoint as="offset" />
          </mxGeometry>
        </mxCell>
        <mxCell id="p0byIvA4VLlAtnDWS7G8-30" value="" style="endArrow=none;dashed=1;html=1;rounded=0;" parent="1" edge="1">
          <mxGeometry width="50" height="50" relative="1" as="geometry">
            <mxPoint x="30" y="1090" as="sourcePoint" />
            <mxPoint x="680" y="1090" as="targetPoint" />
          </mxGeometry>
        </mxCell>
        <mxCell id="p0byIvA4VLlAtnDWS7G8-31" value="Travelling Salesman Problem" style="text;html=1;strokeColor=none;fillColor=none;align=center;verticalAlign=middle;whiteSpace=wrap;rounded=0;" parent="1" vertex="1">
          <mxGeometry x="30" y="1050" width="110" height="40" as="geometry" />
        </mxCell>
      </root>
    </mxGraphModel>
  </diagram>
</mxfile>
